<svg width="100" height="100" viewBox="0 0 100 100" fill="none" 
    xmlns="http://www.w3.org/2000/svg">
    <rect opacity="0.1" width="100" height="100" rx="30" fill="#FBB700"/>
    <path d="M67.8078 28H49.3186C48.5259 28 47.7656 28.3149 47.2051 28.8754C46.6445 29.436 46.3296 30.1962 46.3296 30.9889V39.9374C44.7188 40.2893 43.1481 40.8047 41.6419 41.4755C40.3447 42.0442 39.0787 42.6818 37.8495 43.3855C36.626 44.0781 35.5722 45.0346 34.7645 46.1853C33.9569 47.3361 33.4156 48.6523 33.1801 50.0383L30.0167 68.2658C29.965 68.566 30.0346 68.8744 30.2102 69.1233C30.3859 69.3721 30.6532 69.541 30.9533 69.5927C31.2535 69.6445 31.5619 69.5749 31.8108 69.3992C32.0596 69.2236 32.2285 68.9563 32.2802 68.6561L35.4436 50.4102C35.626 49.3617 36.0389 48.3667 36.6527 47.4973C37.2665 46.6278 38.0657 45.9056 38.9927 45.3827C40.1481 44.7292 41.3374 44.1376 42.5556 43.6105C43.7735 43.0723 45.0364 42.6421 46.3296 42.3249V49.9786C46.0581 49.8711 45.7806 49.7791 45.4986 49.7031C45.353 49.6631 45.2009 49.652 45.0511 49.6707C44.9012 49.6894 44.7565 49.7374 44.6251 49.812C44.3599 49.9627 44.1655 50.2126 44.0845 50.5066C44.0444 50.6522 44.0334 50.8043 44.0521 50.9542C44.0707 51.1041 44.1187 51.2488 44.1934 51.3801C44.344 51.6453 44.5939 51.8398 44.888 51.9208C45.4902 52.073 46.0545 52.3482 46.5454 52.7288C45.8427 53.817 44.9295 54.7536 43.8595 55.4836C43.6075 55.6577 43.4349 55.9249 43.3798 56.2262C43.3247 56.5276 43.3915 56.8385 43.5657 57.0906C43.7398 57.3426 44.0069 57.5152 44.3083 57.5703C44.6097 57.6254 44.9206 57.5585 45.1726 57.3844C46.5334 56.4499 47.6869 55.2449 48.561 53.8445L52.2984 47.9493C52.5845 47.4945 53.0396 47.172 53.5636 47.0527C54.0875 46.9334 54.6374 47.0272 55.0922 47.3134C55.547 47.5995 55.8695 48.0546 55.9887 48.5786C56.108 49.1025 56.0142 49.6524 55.7281 50.1072L52.9365 54.6296C51.8157 56.4277 51.2518 58.5172 51.3158 60.6351C51.361 62.0527 51.0481 63.4588 50.4061 64.7235C49.7641 65.9882 48.8137 67.0707 47.6428 67.871L47.3397 68.0822C46.1233 68.9138 45.0916 69.9876 44.3095 71.2364C44.2293 71.3648 44.1752 71.5078 44.1502 71.6571C44.1253 71.8065 44.13 71.9593 44.1641 72.1068C44.1982 72.2543 44.261 72.3937 44.349 72.5169C44.437 72.6401 44.5483 72.7448 44.6768 72.825C44.8052 72.9052 44.9482 72.9593 45.0975 72.9842C45.2468 73.0092 45.3996 73.0045 45.5471 72.9704C45.6947 72.9363 45.834 72.8734 45.9572 72.7855C46.0805 72.6975 46.1852 72.5861 46.2654 72.4577C46.8803 71.4746 47.6915 70.629 48.6483 69.9738L48.9513 69.7626C50.6661 68.583 52.0013 66.9304 52.7942 65.006L53.0743 65.2907C53.5149 65.7369 54.0636 66.0613 54.6669 66.2321C55.2703 66.403 55.9076 66.4145 56.5168 66.2656C57.1259 66.1167 57.686 65.8124 58.1425 65.3824C58.5989 64.9524 58.9361 64.4114 59.121 63.8123C59.7331 63.9497 60.3708 63.921 60.968 63.729C61.5652 63.537 62.1002 63.1888 62.5176 62.7204C62.9349 62.252 63.2193 61.6806 63.3414 61.0653C63.4635 60.4499 63.4188 59.8132 63.2119 59.2209L63.1568 59.0602H67.8078C68.2003 59.0602 68.589 58.9829 68.9516 58.8327C69.3143 58.6825 69.6438 58.4624 69.9213 58.1848C70.1989 57.9073 70.419 57.5778 70.5692 57.2151C70.7194 56.8525 70.7968 56.4638 70.7968 56.0713V30.9889C70.7968 30.5964 70.7194 30.2078 70.5692 29.8451C70.419 29.4825 70.1989 29.153 69.9213 28.8754C69.6438 28.5979 69.3143 28.3777 68.9516 28.2275C68.589 28.0773 68.2003 28 67.8078 28ZM57.7069 51.3239C58.2749 50.3557 58.4437 49.2045 58.1777 48.114C57.9117 47.0235 57.2317 46.0793 56.2817 45.4814C55.3317 44.8835 54.1863 44.6787 53.0881 44.9106C51.9898 45.1424 51.0248 45.7925 50.3975 46.7234L48.6437 49.4782V30.9889C48.6436 30.8082 48.7141 30.6346 48.8402 30.5051C48.9663 30.3756 49.1379 30.3004 49.3186 30.2957H62.8171V56.7554H54.3966C54.5414 56.4396 54.7055 56.1329 54.8879 55.8371L57.7069 51.3239ZM56.5086 63.7755C56.2509 63.9861 55.9236 64.0925 55.5914 64.0738C55.2591 64.0551 54.9459 63.9127 54.7134 63.6745L53.4967 62.4349C53.5887 61.8164 53.6271 61.1912 53.6115 60.5662C53.5983 60.0593 53.6306 59.5522 53.7079 59.0511H54.9889C54.9889 59.0511 54.9889 59.097 55.021 59.1199L56.8116 62.0308C56.9818 62.3088 57.0449 62.6392 56.9891 62.9603C56.9334 63.2814 56.7625 63.5712 56.5086 63.7755ZM61.054 59.9739C61.1505 60.2566 61.1401 60.5649 61.0247 60.8405C60.9093 61.116 60.6969 61.3397 60.4277 61.4692C60.1585 61.5987 59.8512 61.6251 59.5638 61.5433C59.2765 61.4615 59.0291 61.2772 58.8685 61.0253C58.8318 60.9611 58.7997 60.8968 58.7629 60.8325L57.6748 59.0602H60.728L61.054 59.9739ZM68.4965 56.0621C68.4965 56.246 68.4235 56.4223 68.2934 56.5523C68.1634 56.6824 67.9871 56.7554 67.8032 56.7554H65.1127V30.2957H67.8078C67.9917 30.2957 68.168 30.3687 68.298 30.4987C68.4281 30.6287 68.5011 30.8051 68.5011 30.9889L68.4965 56.0621Z" fill="#FBB700"/>
</svg>
