<svg width="100" height="100" viewBox="0 0 100 100" fill="none" 
    xmlns="http://www.w3.org/2000/svg">
    <rect opacity="0.1" width="100" height="100" rx="30" fill="#FBB700"/>
    <path d="M53.7273 44.105H71.2105C71.9139 44.105 72.4163 43.6033 72.4163 42.901V29.6575C72.4163 28.9552 71.9139 28.4535 71.2105 28.4535H53.7273C53.0239 28.4535 52.5215 28.9552 52.5215 29.6575V42.901C52.5215 43.503 53.0239 44.105 53.7273 44.105ZM54.933 30.8614H70.0048V41.5967H54.933V30.8614ZM72.8182 46.9142C72.8182 47.6165 72.3158 48.1182 71.6124 48.1182H53.3254C52.622 48.1182 52.1196 47.6165 52.1196 46.9142C52.1196 46.2119 52.622 45.7103 53.3254 45.7103H71.512C72.2153 45.7103 72.8182 46.2119 72.8182 46.9142ZM70.3062 54.9406C68.8995 61.5624 64.0765 66.9802 57.7464 69.1875L62.9713 70.5921C63.5742 70.7927 63.9761 71.3947 63.8756 72.097C63.7751 72.5987 63.2727 73 62.6699 73C62.5694 73 62.4689 73 62.3684 73L53.6268 70.6924C53.3254 70.5921 53.0239 70.3914 52.823 69.9901C52.622 69.6891 52.622 69.2878 52.823 68.9868L56.6411 60.8601C56.9426 60.2581 57.6459 59.9571 58.2488 60.2581C58.8517 60.5591 59.1531 61.2614 58.8517 61.8634L56.3397 67.1809C62.1675 65.2746 66.5885 60.4588 67.9952 54.439C68.0957 53.7367 68.799 53.3353 69.4019 53.536C70.1053 53.6363 70.5072 54.3386 70.3062 54.9406ZM28.6077 68.0838H46.0909C46.7943 68.0838 47.2966 67.5822 47.2966 66.8799V53.6363C47.2966 52.934 46.7943 52.4324 46.0909 52.4324H28.6077C27.9043 52.4324 27.4019 52.934 27.4019 53.6363V66.8799C27.4019 67.4819 27.9043 68.0838 28.6077 68.0838ZM29.8134 54.8403H44.8852V65.5756H29.8134V54.8403ZM47.6986 70.8931C47.6986 71.5954 47.1962 72.097 46.4928 72.097H28.2057C27.5024 72.097 27 71.5954 27 70.8931C27 70.1908 27.5024 69.6891 28.2057 69.6891H46.3923C47.0957 69.6891 47.6986 70.1908 47.6986 70.8931ZM48.201 30.9618C48.3014 31.2628 48.3014 31.6641 48.201 31.9651L44.2823 40.0918C44.0813 40.4931 43.6794 40.7941 43.177 40.7941C42.9761 40.7941 42.7751 40.7941 42.6746 40.6938C42.0718 40.3928 41.7703 39.6905 42.0718 39.0885L44.6842 33.5703C38.555 35.276 33.8325 40.1921 32.4258 46.4126C32.3254 47.0146 31.823 47.4159 31.2201 47.4159C31.1196 47.4159 31.0191 47.4159 30.9187 47.4159C30.2153 47.3155 29.8134 46.6132 30.0144 46.0113C31.5215 39.2891 36.445 33.8713 42.8756 31.6641L37.9521 30.3598C37.3493 30.1591 36.9474 29.5571 37.1483 28.8548C37.3493 28.2529 37.9522 27.8515 38.6555 28.0522L47.3971 30.4601C47.799 30.3598 48.1005 30.6608 48.201 30.9618Z" fill="#FBB700"/>
</svg>
