<svg width="109" height="58" viewBox="0 0 109 58" fill="none" 
    xmlns="http://www.w3.org/2000/svg">
    <path d="M45 48.6494V8.35063C44.9965 7.72829 44.7478 7.13244 44.3079 6.69237C43.868 6.25231 43.2723 6.00352 42.6502 6H2.34979C1.72767 6.00352 1.13204 6.25231 0.692127 6.69237C0.252217 7.13244 0.00352083 7.72829 0 8.35063L0 48.6494C0.000709954 49.2726 0.248504 49.8701 0.68902 50.3107C1.12954 50.7514 1.7268 50.9993 2.34979 51H42.6502C43.2732 50.9993 43.8705 50.7514 44.311 50.3107C44.7515 49.8701 44.9993 49.2726 45 48.6494ZM38.1599 39.2952H6.84013V36.8801C6.84221 36.4912 6.99684 36.1187 7.27076 35.8426C7.54467 35.5666 7.91596 35.4092 8.30472 35.4043H38.1599V39.2952ZM38.176 40.2129L38.1599 44.1038H8.30472C7.91596 44.0988 7.54467 43.9414 7.27076 43.6654C6.99684 43.3894 6.84221 43.0168 6.84013 42.6279V40.2129H38.176Z" fill="#5C068C"/>
    <path d="M8.30468 35.3989C7.91592 35.4038 7.54463 35.5613 7.27071 35.8373C6.9968 36.1133 6.84217 36.4858 6.84009 36.8748V39.2898H38.1598V35.3989H8.30468Z" fill="#FFB81C"/>
    <path d="M28.2994 29.796V25.3524L27.9936 25.8032C27.5912 26.415 26.5451 28.025 26.4968 28.1055C26.4415 28.1626 26.3669 28.1971 26.2876 28.2021C26.2113 28.1901 26.1424 28.1499 26.0944 28.0894C26.0301 27.9928 24.6191 25.8193 24.6191 25.8193L24.3294 25.3685V29.796H22.7253V23.2754C22.7304 23.2166 22.7528 23.1605 22.7897 23.1144C22.836 23.0656 22.8995 23.0367 22.9668 23.0339H24.3509C24.4125 23.043 24.4715 23.0649 24.5242 23.0982C24.5769 23.1315 24.622 23.1754 24.6567 23.2271L26.3144 25.932L26.4592 25.7066C26.4592 25.7066 27.8434 23.4525 27.9882 23.211C28.024 23.1581 28.0718 23.1144 28.1278 23.0836C28.1838 23.0528 28.2463 23.0358 28.3101 23.0339H29.6781C29.7401 23.0399 29.7982 23.0672 29.8422 23.1113C29.8863 23.1554 29.9136 23.2134 29.9195 23.2754V29.796H28.2994Z" fill="white"/>
    <path d="M6.82413 29.7799V23.4418C6.8227 23.392 6.83118 23.3425 6.84908 23.296C6.86698 23.2495 6.89393 23.2071 6.92838 23.1711C6.96282 23.1352 7.00407 23.1064 7.04972 23.0866C7.09538 23.0667 7.14452 23.0561 7.1943 23.0554H12.1353V24.4347H8.44966V25.9642H11.7812V27.2522H8.44966V29.7799H6.82413Z" fill="white"/>
    <path d="M17.7039 29.9247C15.7243 29.9247 14.2275 28.4274 14.2275 26.4363C14.2275 24.4453 15.7565 22.905 17.7844 22.905C18.9754 22.905 19.8767 23.3236 20.5526 24.193L19.5065 24.9981C19.4588 25.0298 19.4028 25.0466 19.3456 25.0464C19.2839 25.0399 19.2268 25.0113 19.1846 24.9659C19.0012 24.7757 18.7811 24.6249 18.5376 24.5225C18.2942 24.4201 18.0324 24.3682 17.7683 24.3701C16.7061 24.3701 15.9175 25.2396 15.9175 26.3988C15.9175 27.558 16.7061 28.4596 17.7683 28.4596C18.0446 28.4653 18.3187 28.4106 18.5717 28.2994C18.8247 28.1882 19.0503 28.0231 19.2329 27.8156C19.2792 27.7668 19.3427 27.7379 19.4099 27.7351C19.4619 27.7368 19.5122 27.7536 19.5548 27.7834L20.6009 28.524C19.8499 29.49 18.9593 29.9247 17.7039 29.9247Z" fill="white"/>
    <path d="M32.1083 29.7799V23.4418C32.1052 23.3902 32.1131 23.3386 32.1314 23.2903C32.1497 23.242 32.178 23.1981 32.2145 23.1616C32.251 23.125 32.2949 23.0967 32.3432 23.0784C32.3914 23.0601 32.4431 23.0522 32.4946 23.0554H35.5686C36.3895 23.0554 36.985 23.2486 37.3712 23.635C37.5055 23.7698 37.6106 23.9309 37.6798 24.1082C37.7491 24.2855 37.781 24.4752 37.7736 24.6654C37.7736 25.3362 37.4517 25.8246 36.7918 26.1144L36.4056 26.2754L36.8079 26.4096C37.6931 26.7155 38.0955 27.1985 38.0955 27.9874C38.0955 29.1305 37.1459 29.7906 35.5847 29.7906L32.1083 29.7799ZM33.6856 28.5241H35.3594C36.0515 28.5241 36.4538 28.2343 36.4538 27.719C36.4538 27.4614 36.3573 26.8979 35.3433 26.8979H33.6856V28.5241ZM33.6856 25.8514H35.0858C36.0354 25.8514 36.1588 25.3684 36.1588 25.0786C36.1588 24.8371 36.0622 24.2897 35.1126 24.2897H33.6856V25.8514Z" fill="white"/>
    <path d="M8.30468 44.1038H38.1598L38.1759 40.2129H6.84009V42.6279C6.84217 43.0168 6.9968 43.3894 7.27071 43.6654C7.54463 43.9414 7.91592 44.0988 8.30468 44.1038V44.1038Z" fill="#FFB81C"/>
    <path d="M83.85 23.6201V25.0001H76.47V15.1001H83.64V16.4801H78.075V19.3301H82.425V20.6801H78.075V23.6201H83.85Z" fill="url(#paint0_linear)"/>
    <path d="M92.2611 23.9501C92.4811 23.9501 92.6661 23.9301 92.8161 23.8901L92.7111 24.9701C92.4411 25.0901 92.1311 25.1501 91.7811 25.1501C91.3511 25.1501 91.0061 25.0651 90.7461 24.8951C90.4961 24.7251 90.3311 24.4401 90.2511 24.0401C90.0211 24.3901 89.6811 24.6651 89.2311 24.8651C88.7811 25.0551 88.2761 25.1501 87.7161 25.1501C86.9861 25.1501 86.3961 24.9801 85.9461 24.6401C85.4961 24.3001 85.2711 23.8151 85.2711 23.1851C85.2711 22.5951 85.5161 22.1001 86.0061 21.7001C86.4961 21.2901 87.2261 21.0001 88.1961 20.8301L90.1011 20.5001V20.0951C90.1011 19.6351 89.9661 19.2751 89.6961 19.0151C89.4261 18.7451 89.0511 18.6101 88.5711 18.6101C87.5811 18.6101 86.9361 19.0601 86.6361 19.9601L85.3911 19.3001C85.5711 18.7001 85.9361 18.2251 86.4861 17.8751C87.0461 17.5251 87.7311 17.3501 88.5411 17.3501C89.5111 17.3501 90.2811 17.5751 90.8511 18.0251C91.4211 18.4751 91.7061 19.1351 91.7061 20.0051V23.3951C91.7061 23.5851 91.7461 23.7251 91.8261 23.8151C91.9161 23.9051 92.0611 23.9501 92.2611 23.9501ZM88.0611 23.9351C88.6011 23.9351 89.0761 23.8051 89.4861 23.5451C89.8961 23.2851 90.1011 22.9401 90.1011 22.5101V21.6101L88.4661 21.9401C87.9461 22.0401 87.5611 22.1801 87.3111 22.3601C87.0611 22.5401 86.9361 22.7801 86.9361 23.0801C86.9361 23.3601 87.0311 23.5751 87.2211 23.7251C87.4211 23.8651 87.7011 23.9351 88.0611 23.9351Z" fill="url(#paint1_linear)"/>
    <path d="M97.0508 25.1501C96.2908 25.1501 95.6158 25.0201 95.0258 24.7601C94.4458 24.5001 94.0058 24.1051 93.7058 23.5751L94.7858 22.6451C94.9758 23.0751 95.2708 23.3901 95.6708 23.5901C96.0708 23.7901 96.5508 23.8901 97.1108 23.8901C97.6208 23.8901 98.0158 23.8101 98.2958 23.6501C98.5758 23.4801 98.7158 23.2601 98.7158 22.9901C98.7158 22.7501 98.5858 22.5601 98.3258 22.4201C98.0658 22.2701 97.6158 22.1301 96.9758 22.0001C95.8658 21.7901 95.0858 21.5101 94.6358 21.1601C94.1858 20.8101 93.9608 20.3151 93.9608 19.6751C93.9608 19.2651 94.0858 18.8851 94.3358 18.5351C94.5858 18.1751 94.9458 17.8901 95.4158 17.6801C95.8958 17.4601 96.4608 17.3501 97.1108 17.3501C97.9408 17.3501 98.6058 17.4901 99.1058 17.7701C99.6058 18.0401 99.9908 18.4651 100.261 19.0451L99.1208 19.8851C98.9408 19.4451 98.6858 19.1251 98.3558 18.9251C98.0358 18.7151 97.6258 18.6101 97.1258 18.6101C96.6758 18.6101 96.3008 18.7051 96.0008 18.8951C95.7108 19.0751 95.5658 19.2851 95.5658 19.5251C95.5658 19.7951 95.6958 20.0101 95.9558 20.1701C96.2258 20.3301 96.7108 20.4751 97.4108 20.6051C98.4708 20.7951 99.2208 21.0651 99.6608 21.4151C100.101 21.7651 100.321 22.2551 100.321 22.8851C100.321 23.5551 100.031 24.1001 99.4508 24.5201C98.8708 24.9401 98.0708 25.1501 97.0508 25.1501Z" fill="url(#paint2_linear)"/>
    <path d="M105.359 25.8851C105.029 26.7451 104.654 27.3501 104.234 27.7001C103.814 28.0501 103.264 28.2251 102.584 28.2251C102.194 28.2251 101.854 28.1751 101.564 28.0751C101.284 27.9851 101.034 27.8351 100.814 27.6251L101.279 26.3951C101.579 26.7551 101.989 26.9351 102.509 26.9351C102.809 26.9351 103.059 26.8551 103.259 26.6951C103.469 26.5451 103.654 26.2651 103.814 25.8551L104.144 25.0451L103.364 23.1851L101.024 17.5001H102.824L104.474 22.2101L104.909 23.6201L105.419 22.0751L106.979 17.5001H108.644L105.359 25.8851Z" fill="url(#paint3_linear)"/>
    <path d="M80.28 33.1001C81.35 33.1001 82.195 33.3751 82.815 33.9251C83.445 34.4751 83.76 35.2301 83.76 36.1901C83.76 37.1501 83.445 37.9051 82.815 38.4551C82.195 38.9951 81.35 39.2651 80.28 39.2651H78.075V43.0001H76.47V33.1001H80.28ZM80.025 37.9001C80.725 37.9001 81.245 37.7601 81.585 37.4801C81.925 37.1901 82.095 36.7601 82.095 36.1901C82.095 35.0401 81.405 34.4651 80.025 34.4651H78.075V37.9001H80.025Z" fill="url(#paint4_linear)"/>
    <path d="M92.1293 41.9501C92.3493 41.9501 92.5343 41.9301 92.6843 41.8901L92.5793 42.9701C92.3093 43.0901 91.9993 43.1501 91.6493 43.1501C91.2193 43.1501 90.8743 43.0651 90.6143 42.8951C90.3643 42.7251 90.1993 42.4401 90.1193 42.0401C89.8893 42.3901 89.5493 42.6651 89.0993 42.8651C88.6493 43.0551 88.1443 43.1501 87.5843 43.1501C86.8543 43.1501 86.2643 42.9801 85.8143 42.6401C85.3643 42.3001 85.1393 41.8151 85.1393 41.1851C85.1393 40.5951 85.3843 40.1001 85.8743 39.7001C86.3643 39.2901 87.0943 39.0001 88.0643 38.8301L89.9693 38.5001V38.0951C89.9693 37.6351 89.8343 37.2751 89.5643 37.0151C89.2943 36.7451 88.9193 36.6101 88.4393 36.6101C87.4493 36.6101 86.8043 37.0601 86.5043 37.9601L85.2593 37.3001C85.4393 36.7001 85.8043 36.2251 86.3543 35.8751C86.9143 35.5251 87.5993 35.3501 88.4093 35.3501C89.3793 35.3501 90.1493 35.5751 90.7193 36.0251C91.2893 36.4751 91.5743 37.1351 91.5743 38.0051V41.3951C91.5743 41.5851 91.6143 41.7251 91.6943 41.8151C91.7843 41.9051 91.9293 41.9501 92.1293 41.9501ZM87.9293 41.9351C88.4693 41.9351 88.9443 41.8051 89.3543 41.5451C89.7643 41.2851 89.9693 40.9401 89.9693 40.5101V39.6101L88.3343 39.9401C87.8143 40.0401 87.4293 40.1801 87.1793 40.3601C86.9293 40.5401 86.8043 40.7801 86.8043 41.0801C86.8043 41.3601 86.8993 41.5751 87.0893 41.7251C87.2893 41.8651 87.5693 41.9351 87.9293 41.9351Z" fill="url(#paint5_linear)"/>
    <path d="M97.2149 43.8851C96.8849 44.7451 96.5099 45.3501 96.0899 45.7001C95.6699 46.0501 95.1199 46.2251 94.4399 46.2251C94.0499 46.2251 93.7099 46.1751 93.4199 46.0751C93.1399 45.9851 92.8899 45.8351 92.6699 45.6251L93.1349 44.3951C93.4349 44.7551 93.8449 44.9351 94.3649 44.9351C94.6649 44.9351 94.9149 44.8551 95.1149 44.6951C95.3249 44.5451 95.5099 44.2651 95.6699 43.8551L95.9999 43.0451L95.2199 41.1851L92.8799 35.5001H94.6799L96.3299 40.2101L96.7649 41.6201L97.2749 40.0751L98.8349 35.5001H100.5L97.2149 43.8851Z" fill="url(#paint6_linear)"/>
    <line opacity="0.2" x1="61.5" y1="-2.18557e-08" x2="61.5" y2="58" stroke="#5D2684"/>
    <defs>
        <linearGradient id="paint0_linear" x1="92.5572" y1="15.1001" x2="92.5572" y2="46.2251" gradientUnits="userSpaceOnUse">
            <stop stop-color="#4A3292"/>
            <stop offset="1" stop-color="#AD3193"/>
        </linearGradient>
        <linearGradient id="paint1_linear" x1="92.5572" y1="15.1001" x2="92.5572" y2="46.2251" gradientUnits="userSpaceOnUse">
            <stop stop-color="#4A3292"/>
            <stop offset="1" stop-color="#AD3193"/>
        </linearGradient>
        <linearGradient id="paint2_linear" x1="92.5572" y1="15.1001" x2="92.5572" y2="46.2251" gradientUnits="userSpaceOnUse">
            <stop stop-color="#4A3292"/>
            <stop offset="1" stop-color="#AD3193"/>
        </linearGradient>
        <linearGradient id="paint3_linear" x1="92.5572" y1="15.1001" x2="92.5572" y2="46.2251" gradientUnits="userSpaceOnUse">
            <stop stop-color="#4A3292"/>
            <stop offset="1" stop-color="#AD3193"/>
        </linearGradient>
        <linearGradient id="paint4_linear" x1="92.5572" y1="15.1001" x2="92.5572" y2="46.2251" gradientUnits="userSpaceOnUse">
            <stop stop-color="#4A3292"/>
            <stop offset="1" stop-color="#AD3193"/>
        </linearGradient>
        <linearGradient id="paint5_linear" x1="92.5572" y1="15.1001" x2="92.5572" y2="46.2251" gradientUnits="userSpaceOnUse">
            <stop stop-color="#4A3292"/>
            <stop offset="1" stop-color="#AD3193"/>
        </linearGradient>
        <linearGradient id="paint6_linear" x1="92.5572" y1="15.1001" x2="92.5572" y2="46.2251" gradientUnits="userSpaceOnUse">
            <stop stop-color="#4A3292"/>
            <stop offset="1" stop-color="#AD3193"/>
        </linearGradient>
    </defs>
</svg>
