<svg width="100" height="100" viewBox="0 0 100 100" fill="none" 
    xmlns="http://www.w3.org/2000/svg">
    <rect opacity="0.1" width="100" height="100" rx="30" fill="#FBB700"/>
    <path d="M69.6 38H30.4C29.56 38 29 38.5556 29 39.3889V61.6111C29 62.4444 29.56 63 30.4 63H69.6C70.44 63 71 62.4444 71 61.6111V39.3889C71 38.5556 70.44 38 69.6 38ZM61.34 60.2222H38.66C38.1 56.75 35.3 53.9722 31.8 53.4167V47.5833C35.3 47.0278 38.1 44.25 38.66 40.7778H61.34C61.9 44.25 64.7 47.0278 68.2 47.5833V53.4167C64.7 53.9722 61.9 56.75 61.34 60.2222ZM68.2 44.8056C66.24 44.25 64.7 42.7222 64.14 40.7778H68.2V44.8056ZM35.86 40.7778C35.3 42.7222 33.76 44.25 31.8 44.8056V40.7778H35.86ZM31.8 56.1944C33.76 56.75 35.3 58.2778 35.86 60.2222H31.8V56.1944ZM64.14 60.2222C64.7 58.2778 66.24 56.75 68.2 56.1944V60.2222H64.14ZM57 51.8889C57 54.9444 54.48 57.4444 51.4 57.4444H45.8C44.96 57.4444 44.4 56.8889 44.4 56.0556C44.4 55.2222 44.96 54.6667 45.8 54.6667H51.4C52.94 54.6667 54.2 53.4167 54.2 51.8889C54.2 50.3611 52.94 49.1111 51.4 49.1111H49.16L49.58 49.5278C50.14 50.0833 50.14 50.9167 49.58 51.4722C49.02 52.0278 48.18 52.0278 47.62 51.4722L44.82 48.6944C44.68 48.5556 44.54 48.4167 44.54 48.2778C44.4 48 44.4 47.5833 44.54 47.1667C44.54 47.0278 44.68 46.8889 44.82 46.75L47.62 43.9722C48.18 43.4167 49.02 43.4167 49.58 43.9722C50.14 44.5278 50.14 45.3611 49.58 45.9167L49.16 46.3333H51.4C54.48 46.3333 57 48.8333 57 51.8889Z" fill="#FBB700"/>
</svg>
