<svg width="99" height="45" viewBox="0 0 99 45" fill="none" 
    xmlns="http://www.w3.org/2000/svg">
    <path d="M0 2.83375C0 1.26872 1.26871 0 2.83375 0H42.1662C43.7313 0 45 1.26871 45 2.83375V42.1662C45 43.7313 43.7313 45 42.1662 45H2.83375C1.26872 45 0 43.7313 0 42.1662V2.83375Z" fill="#5D2684"/>
    <path d="M6.61768 30.3552C6.61768 29.6717 7.17172 29.1177 7.85518 29.1177H38.3824V33.0883H6.61768V30.3552Z" fill="#FBB700"/>
    <path d="M6.61768 34.0743H38.3824V38.0449H7.85518C7.17173 38.0449 6.61768 37.4909 6.61768 36.8074V34.0743Z" fill="#FBB700"/>
    <path d="M8.13178 17.386V19.5089H10.8953V20.7583H8.13178V23.8236H6.53296V16.1418H11.4247V17.386H8.13178Z" fill="white"/>
    <path d="M18.4296 21.9336C18.5178 21.9336 18.5919 21.9654 18.6519 22.0289L19.2819 22.7012C18.9713 23.0965 18.5849 23.3965 18.1225 23.6012C17.6637 23.806 17.1166 23.9083 16.4813 23.9083C15.9061 23.9083 15.389 23.8112 14.9302 23.6171C14.4713 23.4195 14.0813 23.146 13.7602 22.7965C13.439 22.4471 13.1919 22.0324 13.019 21.5524C12.8461 21.0724 12.7596 20.5483 12.7596 19.9801C12.7596 19.5989 12.8002 19.2371 12.8813 18.8948C12.9661 18.5489 13.0878 18.2312 13.2466 17.9418C13.4055 17.6524 13.5961 17.3912 13.8184 17.1583C14.0443 16.9254 14.2984 16.7277 14.5808 16.5654C14.8631 16.3995 15.1702 16.2742 15.5019 16.1895C15.8372 16.1012 16.1937 16.0571 16.5713 16.0571C16.8537 16.0571 17.1202 16.0818 17.3708 16.1312C17.6249 16.1807 17.8613 16.2495 18.0802 16.3377C18.299 16.426 18.5002 16.5336 18.6837 16.6607C18.8708 16.7842 19.0384 16.9201 19.1866 17.0683L18.6519 17.7989C18.6202 17.8448 18.5796 17.8854 18.5302 17.9207C18.4808 17.956 18.4137 17.9736 18.329 17.9736C18.2443 17.9736 18.1578 17.9436 18.0696 17.8836C17.9849 17.8236 17.879 17.7565 17.7519 17.6824C17.6284 17.6083 17.4713 17.5412 17.2808 17.4812C17.0937 17.4212 16.8555 17.3912 16.5661 17.3912C16.2449 17.3912 15.9502 17.4495 15.6819 17.566C15.4137 17.6824 15.1825 17.8518 14.9884 18.0742C14.7978 18.293 14.6496 18.563 14.5437 18.8842C14.4378 19.2054 14.3849 19.5707 14.3849 19.9801C14.3849 20.393 14.4413 20.7618 14.5543 21.0865C14.6708 21.4077 14.8278 21.6795 15.0255 21.9018C15.2266 22.1242 15.4596 22.2936 15.7243 22.4101C15.9925 22.523 16.2784 22.5795 16.5819 22.5795C16.7619 22.5795 16.9243 22.5707 17.069 22.553C17.2172 22.5354 17.3531 22.5054 17.4766 22.463C17.6037 22.4207 17.7219 22.366 17.8313 22.2989C17.9443 22.2318 18.0572 22.1471 18.1702 22.0448C18.209 22.013 18.2496 21.9865 18.2919 21.9654C18.3343 21.9442 18.3802 21.9336 18.4296 21.9336Z" fill="white"/>
    <path d="M29.3903 16.1418V23.8236H27.9874V19.1065C27.9874 19.0077 27.9891 18.9018 27.9927 18.7889C27.9997 18.676 28.0103 18.5612 28.0244 18.4448L25.8274 22.6112C25.7074 22.8407 25.5221 22.9554 25.2715 22.9554H25.0491C24.9256 22.9554 24.8162 22.9271 24.7209 22.8707C24.6256 22.8107 24.5497 22.7242 24.4932 22.6112L22.2856 18.4289C22.2962 18.5524 22.305 18.6724 22.3121 18.7889C22.3191 18.9018 22.3227 19.0077 22.3227 19.1065V23.8236H20.9197V16.1418H22.1268C22.1938 16.1418 22.2538 16.1436 22.3068 16.1471C22.3597 16.1507 22.4056 16.1612 22.4444 16.1789C22.4868 16.193 22.5238 16.2177 22.5556 16.253C22.5909 16.2848 22.6244 16.3307 22.6562 16.3907L24.8056 20.4883C24.8727 20.6118 24.9344 20.7389 24.9909 20.8695C25.0509 21.0001 25.1074 21.1342 25.1603 21.2718C25.2132 21.1307 25.268 20.993 25.3244 20.8589C25.3844 20.7248 25.448 20.596 25.515 20.4724L27.6485 16.3907C27.6803 16.3307 27.7138 16.2848 27.7491 16.253C27.7844 16.2177 27.8215 16.193 27.8603 16.1789C27.9027 16.1612 27.9485 16.1507 27.998 16.1471C28.0509 16.1436 28.1127 16.1418 28.1832 16.1418H29.3903Z" fill="white"/>
    <path d="M34.681 22.606C34.9351 22.606 35.1433 22.576 35.3057 22.516C35.4715 22.4524 35.6039 22.3695 35.7027 22.2671C35.8015 22.1648 35.8704 22.0483 35.9092 21.9177C35.948 21.7836 35.9674 21.646 35.9674 21.5048C35.9674 21.3495 35.9445 21.2101 35.8986 21.0865C35.8527 20.963 35.7786 20.8589 35.6762 20.7742C35.5739 20.686 35.4398 20.6189 35.2739 20.573C35.1115 20.5271 34.9104 20.5042 34.6704 20.5042H33.3204V22.606H34.681ZM33.3204 17.3489V19.4242H34.3633C34.5857 19.4242 34.7833 19.4065 34.9562 19.3712C35.1292 19.3324 35.2739 19.2724 35.3904 19.1912C35.5068 19.1101 35.5951 19.0042 35.6551 18.8736C35.7186 18.7395 35.7504 18.5789 35.7504 18.3918C35.7504 18.2012 35.7239 18.0389 35.6709 17.9048C35.6215 17.7707 35.5439 17.663 35.438 17.5818C35.3321 17.5007 35.198 17.4424 35.0357 17.4071C34.8733 17.3683 34.6809 17.3489 34.4586 17.3489H33.3204ZM34.4586 16.1418C34.9739 16.1418 35.4133 16.1912 35.7768 16.2901C36.1439 16.3854 36.4421 16.523 36.6715 16.703C36.9045 16.8795 37.0739 17.0948 37.1798 17.3489C37.2857 17.603 37.3386 17.8871 37.3386 18.2012C37.3386 18.3777 37.3121 18.5471 37.2592 18.7095C37.2098 18.8718 37.1304 19.0254 37.021 19.1701C36.9151 19.3112 36.7774 19.4401 36.608 19.5565C36.4386 19.673 36.2374 19.7718 36.0045 19.853C36.5268 19.9765 36.9133 20.1777 37.1639 20.4565C37.4145 20.7354 37.5398 21.0971 37.5398 21.5418C37.5398 21.8665 37.4762 22.1683 37.3492 22.4471C37.2257 22.726 37.0439 22.9677 36.8039 23.1724C36.5639 23.3771 36.2674 23.5377 35.9145 23.6542C35.5651 23.7671 35.1627 23.8236 34.7074 23.8236H31.7321V16.1418H34.4586Z" fill="white"/>
    <path d="M57.9878 11.2845V14.2338H62.114V15.2722H57.9878V19.3845H56.8801V10.2461H63.2771V11.2845H57.9878Z" fill="url(#paint0_linear)"/>
    <path d="M66.1758 17.5292C66.1758 17.8799 66.2265 18.1245 66.3281 18.263C66.4388 18.3922 66.6373 18.4569 66.9235 18.4569C67.1173 18.4569 67.2835 18.443 67.4219 18.4153C67.5696 18.3876 67.7404 18.3369 67.9342 18.263L67.7542 19.3292C67.4496 19.4584 67.1081 19.523 66.7296 19.523C66.1665 19.523 65.7465 19.3707 65.4696 19.0661C65.2019 18.7615 65.0681 18.2953 65.0681 17.6676V9.27686H66.1758V17.5292Z" fill="url(#paint1_linear)"/>
    <path d="M75.0327 18.5815C75.2173 18.5815 75.4019 18.5584 75.5865 18.5122L75.5173 19.3845C75.2588 19.4769 74.9819 19.523 74.6865 19.523C74.3265 19.523 74.0403 19.4445 73.828 19.2876C73.625 19.1307 73.4957 18.8676 73.4403 18.4984C73.228 18.8215 72.9142 19.0753 72.4988 19.2599C72.0927 19.4353 71.6634 19.523 71.2111 19.523C70.528 19.523 69.965 19.3661 69.5219 19.0522C69.0788 18.7292 68.8573 18.2676 68.8573 17.6676C68.8573 17.1415 69.088 16.6892 69.5496 16.3107C70.0111 15.923 70.6803 15.6553 71.5573 15.5076L73.3988 15.203V14.8153C73.3988 14.3538 73.2557 13.9845 72.9696 13.7076C72.6834 13.4307 72.2865 13.2922 71.7788 13.2922C71.3173 13.2922 70.9157 13.403 70.5742 13.6245C70.2419 13.8461 69.9834 14.1738 69.7988 14.6076L68.9819 14.0122C69.1665 13.4953 69.508 13.0845 70.0065 12.7799C70.5142 12.4753 71.105 12.323 71.7788 12.323C72.6003 12.323 73.2603 12.5215 73.7588 12.9184C74.2573 13.3153 74.5065 13.9015 74.5065 14.6769V18.083C74.5065 18.2492 74.548 18.3738 74.6311 18.4569C74.7142 18.5399 74.848 18.5815 75.0327 18.5815ZM71.2665 18.5538C71.848 18.5538 72.3465 18.4153 72.7619 18.1384C73.1865 17.8615 73.3988 17.5015 73.3988 17.0584V16.103L71.848 16.3938C71.2296 16.5045 70.768 16.6661 70.4634 16.8784C70.1588 17.0815 70.0065 17.3445 70.0065 17.6676C70.0065 17.9538 70.1173 18.1753 70.3388 18.3322C70.5603 18.4799 70.8696 18.5538 71.2665 18.5538Z" fill="url(#paint2_linear)"/>
    <path d="M79.5521 19.523C78.8875 19.523 78.2875 19.3938 77.7521 19.1353C77.2167 18.8676 76.8244 18.4753 76.5752 17.9584L77.4752 17.3353C77.6321 17.7415 77.9044 18.0461 78.2921 18.2492C78.6798 18.4522 79.1367 18.5538 79.6629 18.5538C80.2075 18.5538 80.6229 18.4569 80.909 18.263C81.1952 18.0692 81.3383 17.8245 81.3383 17.5292C81.3383 17.2615 81.2044 17.0492 80.9367 16.8922C80.669 16.7261 80.1983 16.583 79.5244 16.463C78.8598 16.343 78.3337 16.1999 77.946 16.0338C77.5583 15.8584 77.2767 15.6415 77.1014 15.383C76.926 15.1153 76.8383 14.7876 76.8383 14.3999C76.8383 14.0215 76.949 13.6753 77.1706 13.3615C77.3921 13.0476 77.7106 12.7984 78.126 12.6138C78.5414 12.4199 79.0214 12.323 79.566 12.323C80.3044 12.323 80.8952 12.4615 81.3383 12.7384C81.7906 13.0061 82.1137 13.4215 82.3075 13.9845L81.366 14.5384C81.2183 14.0953 80.9921 13.7769 80.6875 13.583C80.3921 13.3892 80.0183 13.2922 79.566 13.2922C79.1137 13.2922 78.7306 13.3938 78.4167 13.5969C78.1029 13.7999 77.946 14.0353 77.946 14.303C77.946 14.6076 78.0798 14.843 78.3475 15.0092C78.6244 15.1753 79.1137 15.3184 79.8152 15.4384C80.7752 15.5953 81.4537 15.8307 81.8506 16.1445C82.2475 16.4584 82.446 16.9015 82.446 17.4738C82.446 17.8707 82.326 18.2261 82.086 18.5399C81.8552 18.8445 81.5183 19.0845 81.0752 19.2599C80.6414 19.4353 80.1337 19.523 79.5521 19.523Z" fill="url(#paint3_linear)"/>
    <path d="M87.8646 12.323C88.6492 12.323 89.2953 12.5492 89.803 13.0015C90.3107 13.4538 90.5646 14.1045 90.5646 14.9538V19.3845H89.4569V15.3415C89.4569 14.6215 89.3 14.0999 88.9861 13.7769C88.6815 13.4538 88.2707 13.2922 87.7538 13.2922C87.3938 13.2922 87.0477 13.3753 86.7153 13.5415C86.3923 13.7076 86.1246 13.9753 85.9123 14.3445C85.7092 14.7045 85.6077 15.1615 85.6077 15.7153V19.3845H84.5V9.27686H85.6077V13.4999C85.8384 13.103 86.1477 12.8076 86.5353 12.6138C86.9323 12.4199 87.3753 12.323 87.8646 12.323Z" fill="url(#paint4_linear)"/>
    <path d="M65.714 35.3076H64.6617V29.5615L64.7863 27.1522H64.7724L61.7678 35.3076H60.8263L57.8217 27.1522H57.8078L57.9324 29.5615V35.3076H56.8801V26.1692H58.5832L60.5909 31.7215L61.2832 34.0061H61.3109L62.0171 31.7353L64.0109 26.1692H65.714V35.3076Z" fill="url(#paint5_linear)"/>
    <path d="M71.2902 28.2461C72.3333 28.2461 73.1502 28.5645 73.741 29.2015C74.341 29.8384 74.641 30.7199 74.641 31.8461C74.641 32.9722 74.341 33.8538 73.741 34.4907C73.1502 35.1276 72.3333 35.4461 71.2902 35.4461C70.2471 35.4461 69.4256 35.1276 68.8256 34.4907C68.2348 33.8538 67.9394 32.9722 67.9394 31.8461C67.9394 30.7199 68.2348 29.8384 68.8256 29.2015C69.4256 28.5645 70.2471 28.2461 71.2902 28.2461ZM71.2902 29.2015C70.5886 29.2015 70.0394 29.4369 69.6425 29.9076C69.2456 30.3784 69.0471 31.0245 69.0471 31.8461C69.0471 32.6676 69.2456 33.3138 69.6425 33.7845C70.0394 34.2553 70.5886 34.4907 71.2902 34.4907C71.9917 34.4907 72.541 34.2553 72.9379 33.7845C73.3348 33.3138 73.5333 32.6676 73.5333 31.8461C73.5333 31.0245 73.3348 30.3784 72.9379 29.9076C72.541 29.4369 71.9917 29.2015 71.2902 29.2015Z" fill="url(#paint6_linear)"/>
    <path d="M80.1572 28.2461C80.9419 28.2461 81.588 28.4722 82.0957 28.9245C82.6034 29.3769 82.8572 30.0276 82.8572 30.8769V35.3076H81.7496V31.2645C81.7496 30.5445 81.5926 30.023 81.2788 29.6999C80.9742 29.3769 80.5634 29.2153 80.0465 29.2153C79.6772 29.2153 79.3311 29.2984 79.008 29.4645C78.6849 29.6215 78.4172 29.8845 78.2049 30.2538C78.0019 30.6138 77.9003 31.0707 77.9003 31.6245V35.3076H76.7926V28.3845H77.7619L77.8311 29.4645C78.0619 29.0492 78.3803 28.7445 78.7865 28.5507C79.1926 28.3476 79.6496 28.2461 80.1572 28.2461Z" fill="url(#paint7_linear)"/>
    <path d="M91.3053 31.4861C91.3053 31.7445 91.2869 32.003 91.25 32.2615H86.03C86.0946 32.963 86.3253 33.5076 86.7223 33.8953C87.1284 34.283 87.65 34.4769 88.2869 34.4769C88.7946 34.4769 89.2146 34.3892 89.5469 34.2138C89.8884 34.0384 90.1192 33.7845 90.2392 33.4522L91.1669 33.9369C90.89 34.4261 90.5207 34.7999 90.0592 35.0584C89.5977 35.3169 89.0069 35.4461 88.2869 35.4461C87.2438 35.4461 86.4223 35.1276 85.8223 34.4907C85.2315 33.8538 84.9361 32.9722 84.9361 31.8461C84.9361 30.7199 85.2177 29.8384 85.7807 29.2015C86.353 28.5645 87.1607 28.2461 88.2038 28.2461C88.85 28.2461 89.4084 28.3892 89.8792 28.6753C90.35 28.9615 90.7053 29.3492 90.9453 29.8384C91.1853 30.3276 91.3053 30.8769 91.3053 31.4861ZM88.2038 29.2153C87.5946 29.2153 87.1007 29.3953 86.7223 29.7553C86.353 30.1153 86.1269 30.623 86.0438 31.2784H90.2392C90.1653 30.6322 89.953 30.1292 89.6023 29.7692C89.2515 29.3999 88.7853 29.2153 88.2038 29.2153Z" fill="url(#paint8_linear)"/>
    <path d="M95.7034 36.4707C95.4358 37.1353 95.1358 37.6015 94.8034 37.8692C94.4711 38.1461 94.0419 38.2845 93.5158 38.2845C93.165 38.2845 92.8696 38.2384 92.6296 38.1461C92.3988 38.0538 92.1865 37.9061 91.9927 37.703L92.3804 36.7615C92.6481 37.1307 93.0219 37.3153 93.5019 37.3153C93.7696 37.3153 94.005 37.2322 94.2081 37.0661C94.4204 36.9092 94.605 36.6184 94.7619 36.1938L95.1219 35.2938L92.2281 28.3845H93.4881L95.2188 32.8984L95.6481 34.1307L96.1465 32.7599L97.7665 28.3845H98.9573L95.7034 36.4707Z" fill="url(#paint9_linear)"/>
    <defs>
        <linearGradient id="paint0_linear" x1="77.9187" y1="9.27686" x2="77.9187" y2="38.2845" gradientUnits="userSpaceOnUse">
            <stop stop-color="#4A3292"/>
            <stop offset="1" stop-color="#AD3193"/>
        </linearGradient>
        <linearGradient id="paint1_linear" x1="77.9187" y1="9.27686" x2="77.9187" y2="38.2845" gradientUnits="userSpaceOnUse">
            <stop stop-color="#4A3292"/>
            <stop offset="1" stop-color="#AD3193"/>
        </linearGradient>
        <linearGradient id="paint2_linear" x1="77.9187" y1="9.27686" x2="77.9187" y2="38.2845" gradientUnits="userSpaceOnUse">
            <stop stop-color="#4A3292"/>
            <stop offset="1" stop-color="#AD3193"/>
        </linearGradient>
        <linearGradient id="paint3_linear" x1="77.9187" y1="9.27686" x2="77.9187" y2="38.2845" gradientUnits="userSpaceOnUse">
            <stop stop-color="#4A3292"/>
            <stop offset="1" stop-color="#AD3193"/>
        </linearGradient>
        <linearGradient id="paint4_linear" x1="77.9187" y1="9.27686" x2="77.9187" y2="38.2845" gradientUnits="userSpaceOnUse">
            <stop stop-color="#4A3292"/>
            <stop offset="1" stop-color="#AD3193"/>
        </linearGradient>
        <linearGradient id="paint5_linear" x1="77.9187" y1="9.27686" x2="77.9187" y2="38.2845" gradientUnits="userSpaceOnUse">
            <stop stop-color="#4A3292"/>
            <stop offset="1" stop-color="#AD3193"/>
        </linearGradient>
        <linearGradient id="paint6_linear" x1="77.9187" y1="9.27686" x2="77.9187" y2="38.2845" gradientUnits="userSpaceOnUse">
            <stop stop-color="#4A3292"/>
            <stop offset="1" stop-color="#AD3193"/>
        </linearGradient>
        <linearGradient id="paint7_linear" x1="77.9187" y1="9.27686" x2="77.9187" y2="38.2845" gradientUnits="userSpaceOnUse">
            <stop stop-color="#4A3292"/>
            <stop offset="1" stop-color="#AD3193"/>
        </linearGradient>
        <linearGradient id="paint8_linear" x1="77.9187" y1="9.27686" x2="77.9187" y2="38.2845" gradientUnits="userSpaceOnUse">
            <stop stop-color="#4A3292"/>
            <stop offset="1" stop-color="#AD3193"/>
        </linearGradient>
        <linearGradient id="paint9_linear" x1="77.9187" y1="9.27686" x2="77.9187" y2="38.2845" gradientUnits="userSpaceOnUse">
            <stop stop-color="#4A3292"/>
            <stop offset="1" stop-color="#AD3193"/>
        </linearGradient>
    </defs>
</svg>
