<svg width="35" height="35" viewBox="0 0 35 35" fill="none" 
    xmlns="http://www.w3.org/2000/svg">
    <path d="M0 2.20403C0 0.986778 0.986778 0 2.20403 0H32.796C34.0132 0 35 0.986778 35 2.20403V32.796C35 34.0132 34.0132 35 32.796 35H2.20403C0.986778 35 0 34.0132 0 32.796V2.20403Z" fill="#5D2684"/>
    <path d="M5.14697 23.6095C5.14697 23.0779 5.5779 22.647 6.10947 22.647H29.8528V25.7352H5.14697V23.6095Z" fill="#FBB700"/>
    <path d="M5.14697 26.5022H29.8528V29.5904H6.10947C5.5779 29.5904 5.14697 29.1595 5.14697 28.6279V26.5022Z" fill="#FBB700"/>
    <path d="M6.32483 13.5223V15.1735H8.47424V16.1452H6.32483V18.5294H5.0813V12.5547H8.886V13.5223H6.32483Z" fill="white"/>
    <path d="M14.3342 17.0594C14.4029 17.0594 14.4605 17.0841 14.5072 17.1335L14.9972 17.6564C14.7556 17.9639 14.455 18.1972 14.0954 18.3564C13.7385 18.5156 13.3131 18.5952 12.8189 18.5952C12.3715 18.5952 11.9693 18.5198 11.6125 18.3688C11.2556 18.215 10.9523 18.0023 10.7025 17.7305C10.4527 17.4588 10.2605 17.1362 10.126 16.7629C9.99148 16.3896 9.92423 15.9819 9.92423 15.5399C9.92423 15.2435 9.9558 14.9621 10.0189 14.6958C10.0848 14.4268 10.1795 14.1798 10.3031 13.9547C10.4266 13.7296 10.5748 13.5264 10.7478 13.3452C10.9234 13.1641 11.1211 13.0103 11.3407 12.8841C11.5603 12.755 11.7991 12.6576 12.0572 12.5917C12.318 12.5231 12.5952 12.4888 12.8889 12.4888C13.1085 12.4888 13.3158 12.508 13.5107 12.5464C13.7083 12.5848 13.8923 12.6384 14.0625 12.707C14.2327 12.7756 14.3891 12.8594 14.5319 12.9582C14.6774 13.0543 14.8078 13.1599 14.9231 13.2752L14.5072 13.8435C14.4825 13.8792 14.4509 13.9107 14.4125 13.9382C14.374 13.9656 14.3219 13.9794 14.256 13.9794C14.1901 13.9794 14.1229 13.956 14.0542 13.9094C13.9883 13.8627 13.906 13.8105 13.8072 13.7529C13.7111 13.6952 13.5889 13.6431 13.4407 13.5964C13.2952 13.5498 13.1099 13.5264 12.8848 13.5264C12.635 13.5264 12.4058 13.5717 12.1972 13.6623C11.9885 13.7529 11.8087 13.8847 11.6578 14.0576C11.5095 14.2278 11.3942 14.4378 11.3119 14.6876C11.2295 14.9374 11.1883 15.2215 11.1883 15.5399C11.1883 15.8611 11.2323 16.148 11.3201 16.4005C11.4107 16.6503 11.5329 16.8617 11.6866 17.0347C11.8431 17.2076 12.0242 17.3394 12.2301 17.4299C12.4387 17.5178 12.6611 17.5617 12.8972 17.5617C13.0372 17.5617 13.1634 17.5548 13.276 17.5411C13.3913 17.5274 13.497 17.5041 13.5931 17.4711C13.6919 17.4382 13.7838 17.3956 13.8689 17.3435C13.9568 17.2913 14.0446 17.2254 14.1325 17.1458C14.1627 17.1211 14.1942 17.1005 14.2272 17.0841C14.2601 17.0676 14.2958 17.0594 14.3342 17.0594Z" fill="white"/>
    <path d="M22.8592 12.5547V18.5294H21.7681V14.8605C21.7681 14.7837 21.7694 14.7013 21.7722 14.6135C21.7777 14.5256 21.7859 14.4364 21.7969 14.3458L20.0881 17.5864C19.9947 17.7649 19.8506 17.8541 19.6557 17.8541H19.4828C19.3867 17.8541 19.3016 17.8321 19.2275 17.7882C19.1534 17.7415 19.0943 17.6743 19.0504 17.5864L17.3334 14.3335C17.3416 14.4296 17.3485 14.5229 17.3539 14.6135C17.3594 14.7013 17.3622 14.7837 17.3622 14.8605V18.5294H16.271V12.5547H17.2098C17.262 12.5547 17.3086 12.556 17.3498 12.5588C17.391 12.5615 17.4267 12.5697 17.4569 12.5835C17.4898 12.5945 17.5186 12.6137 17.5434 12.6411C17.5708 12.6658 17.5969 12.7015 17.6216 12.7482L19.2934 15.9352C19.3455 16.0313 19.3935 16.1301 19.4375 16.2317C19.4841 16.3333 19.5281 16.4376 19.5692 16.5447C19.6104 16.4348 19.653 16.3278 19.6969 16.2235C19.7435 16.1192 19.793 16.019 19.8451 15.9229L21.5045 12.7482C21.5292 12.7015 21.5553 12.6658 21.5828 12.6411C21.6102 12.6137 21.639 12.5945 21.6692 12.5835C21.7022 12.5697 21.7379 12.5615 21.7763 12.5588C21.8175 12.556 21.8655 12.5547 21.9204 12.5547H22.8592Z" fill="white"/>
    <path d="M26.9742 17.5823C27.1718 17.5823 27.3338 17.559 27.4601 17.5123C27.5891 17.4629 27.692 17.3984 27.7689 17.3188C27.8457 17.2392 27.8993 17.1486 27.9295 17.047C27.9597 16.9427 27.9748 16.8356 27.9748 16.7258C27.9748 16.605 27.9569 16.4966 27.9212 16.4005C27.8856 16.3045 27.8279 16.2235 27.7483 16.1576C27.6687 16.089 27.5644 16.0368 27.4354 16.0011C27.3091 15.9654 27.1526 15.9476 26.9659 15.9476H25.9159V17.5823H26.9742ZM25.9159 13.4935V15.1076H26.7271C26.9001 15.1076 27.0538 15.0939 27.1883 15.0664C27.3228 15.0362 27.4354 14.9896 27.5259 14.9264C27.6165 14.8633 27.6852 14.7809 27.7318 14.6794C27.7812 14.575 27.8059 14.4501 27.8059 14.3047C27.8059 14.1564 27.7854 14.0301 27.7442 13.9258C27.7057 13.8215 27.6454 13.7378 27.563 13.6747C27.4806 13.6115 27.3763 13.5662 27.2501 13.5388C27.1238 13.5086 26.9742 13.4935 26.8012 13.4935H25.9159ZM26.8012 12.5547C27.202 12.5547 27.5438 12.5931 27.8265 12.6699C28.112 12.7441 28.344 12.8511 28.5224 12.9911C28.7036 13.1284 28.8354 13.2958 28.9177 13.4935C29.0001 13.6911 29.0412 13.9121 29.0412 14.1564C29.0412 14.2937 29.0206 14.4254 28.9795 14.5517C28.941 14.678 28.8793 14.7974 28.7942 14.9099C28.7118 15.0198 28.6048 15.1199 28.473 15.2105C28.3412 15.3011 28.1848 15.378 28.0036 15.4411C28.4099 15.5372 28.7105 15.6937 28.9054 15.9105C29.1003 16.1274 29.1977 16.4088 29.1977 16.7547C29.1977 17.0072 29.1483 17.2419 29.0495 17.4588C28.9534 17.6756 28.812 17.8637 28.6254 18.0229C28.4387 18.1821 28.2081 18.307 27.9336 18.3976C27.6618 18.4854 27.3489 18.5294 26.9948 18.5294H24.6806V12.5547H26.8012Z" fill="white"/>
</svg>
