<svg width="100" height="100" viewBox="0 0 100 100" fill="none" 
    xmlns="http://www.w3.org/2000/svg">
    <rect opacity="0.1" width="100" height="100" rx="30" fill="#FBB700"/>
    <path d="M68.1222 68.3436V51.4727H64.9713V68.3436C64.9713 68.8629 64.8386 69.3133 64.6252 69.6215C64.5256 69.7614 64.445 69.8491 64.4047 69.8491H35.7175C35.6772 69.8491 35.5942 69.7614 35.497 69.6215C35.2836 69.3157 35.1509 68.8629 35.1509 68.3436V35.7492C35.1509 35.23 35.2836 34.7796 35.497 34.4714C35.5942 34.3315 35.6772 34.2438 35.7175 34.2438C35.8617 34.2438 36.1932 34.2429 36.7859 34.2414C37.5868 34.2393 38.8644 34.236 40.8006 34.2319C42.4222 34.2295 43.9799 34.2248 45.4949 34.2201V31.0811C43.9775 31.0858 42.4222 31.0905 40.8006 31.0929H35.7175C34.5795 31.0929 33.5908 31.6975 32.9128 32.6743C32.3485 33.4851 32 34.5733 32 35.7492V68.3436C32 69.5172 32.3509 70.6078 32.9128 71.4186C33.5908 72.393 34.5795 73 35.7175 73H64.4047C65.5427 73 66.5314 72.3954 67.2094 71.4186C67.7737 70.6078 68.1222 69.5196 68.1222 68.3436Z" fill="#FBB700"/>
    <path d="M41.3933 61.2833C41.3933 60.4155 40.6891 59.709 39.819 59.709H39.1457C38.278 59.709 37.5715 60.4132 37.5715 61.2833C37.5715 62.151 38.2756 62.8575 39.1457 62.8575H39.819C40.6868 62.8575 41.3933 62.1534 41.3933 61.2833Z" fill="#FBB700"/>
    <path d="M41.3933 56.1504C41.3933 55.2826 40.6891 54.5761 39.819 54.5761H39.1457C38.278 54.5761 37.5715 55.2803 37.5715 56.1504C37.5715 57.0181 38.2756 57.7246 39.1457 57.7246H39.819C40.6868 57.7246 41.3933 57.0205 41.3933 56.1504Z" fill="#FBB700"/>
    <path d="M61.939 61.2833C61.939 60.4155 61.2349 59.709 60.3648 59.709H46.0662C45.1985 59.709 44.492 60.4132 44.492 61.2833C44.492 62.151 45.1961 62.8575 46.0662 62.8575H60.3648C61.2325 62.8575 61.939 62.1534 61.939 61.2833Z" fill="#FBB700"/>
    <path d="M61.939 56.129C61.939 55.2613 61.2349 54.5548 60.3648 54.5548H46.0662C45.1985 54.5548 44.492 55.2589 44.492 56.129C44.492 56.9968 45.1961 57.7033 46.0662 57.7033H60.3648C61.2325 57.7033 61.939 56.9991 61.939 56.129Z" fill="#FBB700"/>
    <path d="M41.3933 50.9511C41.3933 50.0834 40.6891 49.3769 39.819 49.3769H39.1457C38.278 49.3769 37.5715 50.081 37.5715 50.9511C37.5715 51.8188 38.2756 52.5254 39.1457 52.5254H39.819C40.6868 52.5254 41.3933 51.8212 41.3933 50.9511Z" fill="#FBB700"/>
    <path d="M41.3933 45.8182C41.3933 44.9505 40.6891 44.244 39.819 44.244H39.1457C38.278 44.244 37.5715 44.9481 37.5715 45.8182C37.5715 46.686 38.2756 47.3925 39.1457 47.3925H39.819C40.6868 47.3925 41.3933 46.6883 41.3933 45.8182Z" fill="#FBB700"/>
    <path d="M41.3933 40.6853C41.3933 39.8176 40.6891 39.1111 39.819 39.1111H39.1457C38.278 39.1111 37.5715 39.8152 37.5715 40.6853C37.5715 41.5531 38.2756 42.2596 39.1457 42.2596H39.819C40.6868 42.2596 41.3933 41.5555 41.3933 40.6853Z" fill="#FBB700"/>
    <path d="M54.7909 50.9725C54.7909 50.1047 54.0868 49.3982 53.2167 49.3982H46.0662C45.1985 49.3982 44.492 50.1023 44.492 50.9725C44.492 51.8402 45.1961 52.5467 46.0662 52.5467H53.2167C54.0844 52.5467 54.7909 51.8426 54.7909 50.9725Z" fill="#FBB700"/>
    <path d="M48.8686 45.8182C48.8686 44.9505 48.1644 44.244 47.2943 44.244H46.0662C45.1985 44.244 44.492 44.9481 44.492 45.8182C44.492 46.686 45.1961 47.3925 46.0662 47.3925H47.2943C48.1621 47.3925 48.8686 46.6883 48.8686 45.8182Z" fill="#FBB700"/>
    <path d="M56.4609 43.2325V37.0298H54.5784V35.4851H56.4609V33.506H54.5784V31.9614H56.4609V26H58.971L61.2638 31.9614H64.1117V26H66.0184V31.9614H67.901V33.506H66.0184V35.4851H67.901V37.0298H66.0184V43.2325H63.4842L61.1914 37.0298H58.3435V43.2325H56.4609ZM58.2952 31.9614H59.3089L58.2952 28.9686H58.1986L58.2952 31.9614ZM58.3435 35.4851H60.6122L59.8881 33.506H58.2952L58.3435 35.4851ZM62.543 35.4851H64.16L64.1117 33.506H61.8189L62.543 35.4851ZM64.1117 39.8294H64.2083L64.1359 37.0298H63.1222L64.1117 39.8294Z" fill="#FBB700"/>
</svg>
