<svg width="220" height="220" viewBox="0 0 220 220" fill="none" 
    xmlns="http://www.w3.org/2000/svg">
    <path d="M220 208.508V11.492C219.983 8.44941 218.767 5.53638 216.616 3.38494C214.466 1.2335 211.554 0.0172191 208.512 0L11.4878 0C8.44639 0.0172191 5.5344 1.2335 3.38373 3.38494C1.23306 5.53638 0.0172129 8.44941 0 11.492L0 208.508C0.00347089 211.555 1.21491 214.476 3.36854 216.63C5.52218 218.785 8.44214 219.997 11.4878 220H208.512C211.558 219.997 214.478 218.785 216.631 216.63C218.785 214.476 219.997 211.555 220 208.508ZM186.559 162.776H33.4406V150.97C33.4508 149.068 34.2068 147.247 35.5459 145.897C36.885 144.548 38.7002 143.778 40.6009 143.754H186.559V162.776ZM186.638 167.263L186.559 186.285H40.6009C38.7002 186.261 36.885 185.491 35.5459 184.142C34.2068 182.793 33.4508 180.971 33.4406 179.07V167.263H186.638Z" fill="#5C068C"/>
    <path d="M40.6009 143.728C38.7003 143.752 36.8851 144.522 35.5459 145.871C34.2068 147.221 33.4508 149.042 33.4406 150.943V162.75H186.559V143.728H40.6009Z" fill="#FFB81C"/>
    <path d="M138.352 116.336V94.6118L136.857 96.8158C134.89 99.8068 129.776 107.678 129.54 108.072C129.27 108.351 128.905 108.519 128.517 108.544C128.144 108.485 127.807 108.289 127.573 107.993C127.258 107.521 120.36 96.8945 120.36 96.8945L118.944 94.6905V116.336H111.102V84.458C111.126 84.1702 111.236 83.8962 111.416 83.6708C111.643 83.4321 111.953 83.2909 112.282 83.2773H119.049C119.35 83.3217 119.639 83.4287 119.896 83.5914C120.153 83.7541 120.374 83.9688 120.544 84.2218L128.648 97.4454L129.356 96.3435C129.356 96.3435 136.123 85.3238 136.831 84.1431C137.006 83.8842 137.24 83.6706 137.514 83.52C137.787 83.3695 138.093 83.2863 138.405 83.2773H145.093C145.396 83.3064 145.68 83.4401 145.895 83.6555C146.111 83.871 146.244 84.1547 146.273 84.458V116.336H138.352Z" fill="white"/>
    <path d="M33.362 116.258V85.2713C33.355 85.0279 33.3964 84.7856 33.4839 84.5584C33.5714 84.3312 33.7032 84.1237 33.8716 83.9479C34.04 83.7721 34.2417 83.6316 34.4649 83.5345C34.6881 83.4374 34.9283 83.3856 35.1717 83.3822H59.3276V90.1252H41.309V97.6029H57.5966V103.9H41.309V116.258H33.362Z" fill="white"/>
    <path d="M86.5522 116.966C76.8741 116.966 69.5565 109.646 69.5565 99.9118C69.5565 90.1777 77.0315 82.6476 86.9456 82.6476C92.7682 82.6476 97.1745 84.6941 100.479 88.9446L95.3648 92.8802C95.1318 93.0353 94.8579 93.1175 94.578 93.1163C94.2768 93.0846 93.9972 92.9448 93.7911 92.7227C92.8945 91.7932 91.8184 91.0558 90.6281 90.5551C89.4378 90.0545 88.1582 89.8011 86.867 89.8104C81.6738 89.8104 77.8183 94.0608 77.8183 99.7281C77.8183 105.395 81.6738 109.803 86.867 109.803C88.2176 109.831 89.558 109.564 90.7947 109.02C92.0313 108.476 93.1345 107.669 94.0272 106.655C94.2536 106.416 94.564 106.275 94.8927 106.261C95.1466 106.27 95.3927 106.352 95.6009 106.497L100.715 110.118C97.0434 114.841 92.6896 116.966 86.5522 116.966Z" fill="white"/>
    <path d="M156.974 116.258V85.2713C156.959 85.0192 156.997 84.7668 157.087 84.5307C157.176 84.2945 157.315 84.0801 157.493 83.9015C157.672 83.7229 157.886 83.5843 158.122 83.4948C158.358 83.4053 158.611 83.3669 158.863 83.3822H173.891C177.904 83.3822 180.815 84.3268 182.704 86.2159C183.361 86.875 183.874 87.6626 184.213 88.5294C184.551 89.3962 184.707 90.3235 184.671 91.2534C184.671 94.5331 183.097 96.9207 179.871 98.3375L177.983 99.1246L179.95 99.7806C184.278 101.276 186.245 103.637 186.245 107.494C186.245 113.083 181.602 116.31 173.97 116.31L156.974 116.258ZM164.685 110.118H172.868C176.252 110.118 178.219 108.701 178.219 106.182C178.219 104.923 177.747 102.168 172.79 102.168H164.685V110.118ZM164.685 97.0519H171.531C176.173 97.0519 176.776 94.6905 176.776 93.2737C176.776 92.093 176.304 89.4168 171.662 89.4168H164.685V97.0519Z" fill="white"/>
    <path d="M40.6009 186.285H186.559L186.638 167.263H33.4406V179.07C33.4508 180.971 34.2068 182.793 35.5459 184.142C36.8851 185.491 38.7003 186.261 40.6009 186.285Z" fill="#FFB81C"/>
</svg>
